<?xml version="1.0" standalone="no"?>
<!DOCTYPE svg PUBLIC "-//W3C//DTD SVG 20010904//EN" "http://www.w3.org/TR/2001/REC-SVG-20010904/DTD/svg10.dtd">
<svg xmlns="http://www.w3.org/2000/svg" version="1.0" width="507.000000pt" height="505.000000pt" viewBox="0 0 507.000000 505.000000" preserveAspectRatio="xMidYMid meet">
<metadata>
Created by potrace 1.16, written by Peter Selinger 2001-2019
<meta name="Producer" content="Online-Convert"/></metadata>
<g transform="translate(0.000000,505.000000) scale(0.100000,-0.100000)" fill="#000000" stroke="none">
<path d="M815 4784 c-124 -27 -242 -84 -321 -156 -69 -63 -139 -170 -173 -261 l-26 -72 0 -1670 0 -1670 28 -68 c35 -87 84 -163 144 -226 55 -56 150 -124 164 -115 5 3 9 1 9 -4 0 -6 35 -23 78 -38 l77 -29 1650 0 1650 0 70 22 c193 62 345 212 417 413 l23 65 3 1620 c2 1471 1 1627 -14 1694 -49 223 -190 384 -412 470 l-67 26 -1640 1 c-902 1 -1649 0 -1660 -2z m1225 -69 c0 -2 -26 -16 -57 -31 -79 -35 -209 -123 -258 -173 -37 -39 -42 -41 -100 -41 -236 -2 -496 -115 -689 -300 -188 -181 -298 -409 -326 -677 -11 -104 -13 -109 -49 -148 -74 -79 -142 -183 -183 -280 -17 -38 -17 -15 -15 565 l2 605 27 66 c14 37 33 80 42 98 9 17 16 33 15 37 0 3 39 45 88 93 69 69 105 96 165 125 133 64 141 64 771 65 312 1 567 -1 567 -4z m606 -11 c76 -15 205 -59 267 -90 46 -23 137 -84 171 -116 l30 -26 -40 -7 c-221 -34 -446 -139 -586 -273 l-37 -35 -58 50 c-166 142 -337 220 -566 258 -33 5 -37 8 -26 22 42 50 220 150 335 187 146 48 364 61 510 30z m1472 -16 c189 -70 330 -215 394 -405 22 -67 23 -74 25 -663 l3 -595 -48 90 c-59 110 -98 167 -157 233 -42 46 -45 54 -45 105 0 105 -40 271 -97 395 -37 82 -127 214 -196 288 -176 189 -437 314 -687 331 l-95 6 -65 57 c-74 65 -120 95 -229 151 l-76 39 600 -3 600 -2 73 -27z m-2246 -299 c123 -21 263 -79 374 -155 68 -47 154 -119 154 -129 0 -2 -14 -20 -31 -39 -121 -138 -228 -419 -229 -598 0 -41 -4 -68 -10 -68 -6 0 -29 17 -51 37 -154 143 -338 224 -603 268 l-39 6 6 88 c9 140 62 311 128 416 16 25 29 48 29 51 0 3 26 37 57 75 l57 69 51 -6 c27 -3 76 -10 107 -15z m1371 -52 c66 -83 128 -196 163 -300 26 -75 54 -226 54 -289 0 -40 2 -39 -105 -53 -172 -23 -378 -119 -527 -247 -31 -26 -58 -48 -61 -48 -2 0 -7 39 -11 87 -11 151 -69 334 -144 458 -20 33 -39 62 -42 65 -3 3 -20 27 -39 53 l-33 48 38 34 c161 143 363 233 569 255 38 4 72 8 75 8 3 1 31 -31 63 -71z m-1640 51 c-4 -7 -29 -45 -55 -84 -96 -145 -163 -338 -175 -504 l-6 -86 -111 -12 c-183 -20 -391 -97 -514 -192 -29 -22 -56 -40 -61 -40 -19 0 18 181 59 289 123 317 399 554 731 626 85 18 143 19 132 3z m1926 -34 c194 -65 351 -175 489 -344 99 -122 202 -382 202 -512 l0 -38 -62 46 c-140 104 -356 184 -540 199 l-87 7 -6 67 c-20 214 -82 392 -191 549 -24 35 -44 66 -44 69 0 15 145 -11 239 -43z m-1036 -351 c131 -182 197 -381 197 -594 l0 -98 -45 -65 c-25 -36 -66 -107 -90 -158 -43 -90 -95 -266 -95 -320 0 -56 -19 -35 -30 34 -26 153 -108 352 -189 457 -30 40 -36 55 -39 111 -8 145 43 358 120 500 44 82 114 180 127 180 5 0 25 -21 44 -47z m-1118 -410 c14 -108 56 -249 103 -346 45 -94 145 -243 185 -276 29 -23 19 -31 -35 -31 -187 0 -428 -89 -606 -223 l-54 -41 -40 44 c-84 96 -162 231 -205 355 -25 74 -58 267 -49 290 7 18 137 115 206 153 122 68 304 119 432 121 l57 1 6 -47z m165 33 c198 -33 411 -145 552 -292 43 -46 47 -55 63 -137 27 -150 87 -293 171 -415 24 -35 44 -67 44 -73 0 -5 -28 10 -62 35 -125 89 -327 171 -448 183 -52 5 -59 10 -123 72 -111 107 -178 210 -235 357 -28 72 -62 219 -62 265 0 23 -6 22 100 5z m1913 -33 c-17 -136 -76 -304 -144 -411 -15 -25 -26 -49 -22 -55 3 -6 1 -7 -4 -4 -6 4 -22 -10 -36 -31 -15 -20 -53 -63 -85 -95 -51 -50 -65 -58 -112 -66 -175 -29 -357 -105 -483 -204 -21 -16 -40 -27 -43 -24 -3 3 17 38 44 78 94 141 152 282 175 427 12 72 13 75 81 143 137 138 318 233 522 273 116 23 115 24 107 -31z m237 37 c176 -28 379 -124 498 -234 28 -26 32 -37 32 -78 0 -109 -55 -296 -122 -413 -69 -122 -163 -234 -183 -219 -157 114 -197 138 -298 180 -93 38 -212 65 -309 71 -49 3 -88 9 -88 12 0 4 25 36 54 72 77 92 149 215 184 313 34 92 62 216 62 271 l0 35 53 0 c28 0 81 -5 117 -10z m-3018 -610 c53 -136 128 -261 211 -347 l40 -42 -39 -43 c-134 -145 -232 -349 -264 -548 l-13 -75 -34 40 c-73 83 -141 218 -189 375 -26 85 -31 355 -9 457 33 148 127 347 203 426 l27 28 21 -103 c11 -57 32 -132 46 -168z m3673 208 c262 -349 259 -851 -8 -1206 -45 -59 -50 -57 -61 23 -11 79 -55 213 -97 298 -45 90 -80 143 -151 228 l-50 61 29 31 c63 67 128 163 174 257 47 94 99 258 99 312 0 25 9 58 15 58 2 0 24 -28 50 -62z m-2595 -357 c20 -4 56 -24 81 -43 114 -86 300 -160 462 -183 26 -3 47 -10 47 -15 0 -4 -24 -11 -52 -15 -157 -21 -361 -107 -480 -201 -37 -30 -99 -37 -221 -24 -129 13 -245 46 -356 102 -87 44 -201 121 -201 137 0 14 102 87 181 129 160 85 423 140 539 113z m1577 -2 c113 -12 227 -46 335 -99 82 -40 208 -125 208 -140 0 -16 -141 -110 -215 -145 -150 -69 -273 -98 -420 -99 l-100 -1 -85 56 c-47 31 -100 64 -117 73 -67 34 -196 76 -283 92 -50 9 -90 20 -90 24 0 4 30 13 68 20 153 26 297 83 417 165 99 68 122 72 282 54z m-2295 -334 c169 -127 415 -215 600 -215 l60 0 -47 -52 c-140 -156 -241 -379 -270 -600 l-6 -48 -53 0 c-184 0 -419 91 -594 230 l-54 42 7 61 c8 78 30 174 56 253 24 75 107 222 163 289 68 83 70 85 74 85 2 0 31 -20 64 -45z m2928 13 c138 -149 242 -379 256 -572 l7 -82 -54 -45 c-157 -131 -357 -212 -556 -226 l-93 -6 0 37 c0 59 -29 184 -64 278 -39 103 -110 224 -183 313 -29 35 -53 66 -53 69 0 3 25 6 56 6 82 0 243 36 346 77 87 35 248 132 277 166 19 24 27 22 61 -15z m-1638 -80 c-27 -40 -61 -96 -75 -124 -37 -74 -83 -217 -97 -301 -12 -72 -12 -72 -85 -141 -158 -151 -362 -249 -572 -276 -60 -8 -58 -12 -43 84 13 78 51 200 86 274 70 149 226 330 292 341 186 31 367 105 497 204 22 16 41 26 43 21 2 -4 -19 -41 -46 -82z m247 64 c133 -104 307 -175 502 -207 29 -4 52 -21 105 -78 155 -163 245 -352 278 -585 l7 -44 -53 7 c-192 24 -362 99 -533 236 -95 77 -115 108 -135 213 -29 146 -88 284 -175 409 -61 87 -60 98 4 49z m-101 -91 c23 -139 92 -305 179 -430 l45 -64 -1 -98 c0 -161 -33 -295 -108 -444 -38 -76 -119 -195 -132 -195 -13 0 -86 99 -125 170 -76 140 -113 277 -123 450 l-6 105 51 75 c94 139 155 290 183 453 6 38 15 65 18 60 4 -4 13 -41 19 -82z m2070 -891 l-3 -515 -29 -75 c-62 -161 -171 -286 -312 -354 -131 -65 -144 -66 -779 -66 l-570 1 80 40 c101 52 165 95 235 157 l55 49 90 6 c361 24 704 254 869 584 68 135 115 312 116 434 0 44 4 60 22 75 41 36 135 172 179 258 l44 86 3 -83 c2 -45 2 -314 0 -597z m-4021 416 c31 -39 64 -78 73 -86 12 -11 17 -35 19 -85 3 -80 31 -223 61 -302 133 -357 451 -624 819 -688 46 -8 108 -15 138 -15 52 0 58 -3 112 -52 65 -60 167 -128 249 -166 l57 -27 -100 -3 c-55 -2 -323 -1 -595 1 -477 3 -497 4 -560 25 -141 47 -283 161 -348 279 -12 22 -34 72 -50 109 l-27 69 -3 600 -2 600 50 -94 c28 -52 76 -126 107 -165z m1626 -203 c7 -119 41 -243 102 -368 49 -101 140 -232 158 -227 40 11 -129 -132 -216 -182 -116 -66 -299 -122 -421 -128 l-60 -3 -64 85 c-115 153 -188 342 -199 517 l-6 92 39 6 c156 26 276 61 369 108 65 32 197 123 235 161 19 19 40 35 46 35 7 1 13 -35 17 -96z m685 48 c102 -87 253 -172 374 -209 59 -18 95 -26 227 -48 l34 -5 -7 -82 c-13 -156 -70 -329 -150 -455 -15 -23 -24 -48 -20 -54 4 -6 3 -8 -3 -5 -6 4 -28 -16 -49 -43 -21 -28 -43 -50 -49 -51 -104 -9 -295 36 -418 98 -99 49 -267 174 -267 198 0 3 9 16 21 28 121 130 239 437 239 623 0 30 3 54 6 54 3 0 31 -22 62 -49z m1383 -115 c-64 -364 -315 -662 -664 -785 -83 -29 -241 -60 -252 -49 -3 3 14 34 38 69 111 159 171 331 192 550 l6 67 82 7 c197 17 415 97 552 204 45 35 50 37 53 19 2 -11 -1 -48 -7 -82z m-3470 55 c140 -106 344 -179 547 -197 l82 -7 0 -41 c0 -168 77 -404 181 -556 25 -36 49 -71 54 -79 7 -12 -3 -13 -56 -7 -344 35 -678 296 -807 630 -41 108 -80 296 -61 296 5 0 32 -18 60 -39z m1763 -698 c141 -128 355 -225 569 -258 33 -5 37 -8 26 -22 -46 -54 -244 -160 -374 -199 -131 -39 -341 -45 -483 -15 -157 34 -320 110 -417 194 l-40 35 40 7 c219 36 403 118 554 247 36 31 68 57 70 57 1 1 26 -20 55 -46z"/>
</g>
</svg>
